<svg width="10" height="7" viewBox="0 0 10 7" fill="none" xmlns="http://www.w3.org/2000/svg">
<path d="M9.11388 1.87738L5.1187 5.9983C5.07114 6.04721 5.01961 6.08178 4.96412 6.102C4.90863 6.12254 4.84918 6.13281 4.78577 6.13281C4.72235 6.13281 4.6629 6.12254 4.60741 6.102C4.55192 6.08178 4.5004 6.04721 4.45283 5.9983L0.445763 1.87738C0.334785 1.76325 0.279297 1.62058 0.279297 1.44939C0.279297 1.27819 0.338749 1.13145 0.457653 1.00917C0.576557 0.886889 0.715279 0.825747 0.873818 0.825747C1.03236 0.825747 1.17108 0.886889 1.28998 1.00917L4.78577 4.60428L8.28155 1.00917C8.39253 0.895041 8.52919 0.837976 8.69153 0.837976C8.85419 0.837976 8.99497 0.899117 9.11388 1.0214C9.23278 1.14368 9.29223 1.28635 9.29223 1.44939C9.29223 1.61243 9.23278 1.7551 9.11388 1.87738Z" fill="black"/>
</svg>
