<svg width="59" height="59" viewBox="0 0 59 59" fill="none" xmlns="http://www.w3.org/2000/svg">
<path d="M29.5 18.4375C27.312 18.4375 25.1732 19.0863 23.354 20.3019C21.5348 21.5174 20.1169 23.2452 19.2796 25.2666C18.4423 27.288 18.2232 29.5123 18.6501 31.6582C19.0769 33.8041 20.1305 35.7753 21.6776 37.3224C23.2248 38.8695 25.1959 39.9231 27.3418 40.3499C29.4877 40.7768 31.712 40.5577 33.7334 39.7204C35.7548 38.8831 37.4826 37.4652 38.6981 35.646C39.9137 33.8268 40.5625 31.688 40.5625 29.5C40.5625 26.566 39.397 23.7523 37.3224 21.6776C35.2477 19.603 32.434 18.4375 29.5 18.4375ZM29.5 36.875C28.0414 36.875 26.6155 36.4425 25.4027 35.6321C24.1899 34.8217 23.2446 33.6699 22.6864 32.3223C22.1282 30.9747 21.9821 29.4918 22.2667 28.0612C22.5513 26.6306 23.2537 25.3165 24.2851 24.2851C25.3165 23.2537 26.6306 22.5513 28.0612 22.2667C29.4918 21.9821 30.9747 22.1282 32.3223 22.6864C33.6699 23.2446 34.8217 24.1899 35.6321 25.4027C36.4425 26.6155 36.875 28.0414 36.875 29.5C36.8689 31.4541 36.09 33.3264 34.7082 34.7082C33.3264 36.09 31.4541 36.8689 29.5 36.875ZM39.6406 6.45312H19.3594C15.9364 6.45313 12.6537 7.81289 10.2333 10.2333C7.81289 12.6537 6.45313 15.9364 6.45312 19.3594V39.6406C6.45313 43.0636 7.81289 46.3463 10.2333 48.7667C12.6537 51.1871 15.9364 52.5469 19.3594 52.5469H39.6406C43.0636 52.5469 46.3463 51.1871 48.7667 48.7667C51.1871 46.3463 52.5469 43.0636 52.5469 39.6406V19.3594C52.5469 15.9364 51.1871 12.6537 48.7667 10.2333C46.3463 7.81289 43.0636 6.45313 39.6406 6.45312ZM48.8594 39.6406C48.8594 40.8512 48.6209 42.05 48.1576 43.1685C47.6944 44.287 47.0153 45.3032 46.1593 46.1593C45.3032 47.0153 44.287 47.6944 43.1685 48.1576C42.05 48.6209 40.8512 48.8594 39.6406 48.8594H19.3594C18.1488 48.8594 16.95 48.6209 15.8315 48.1576C14.713 47.6944 13.6968 47.0153 12.8407 46.1593C11.9847 45.3032 11.3056 44.287 10.8424 43.1685C10.3791 42.05 10.1406 40.8512 10.1406 39.6406V19.3594C10.1406 16.9144 11.1119 14.5696 12.8407 12.8407C14.5696 11.1119 16.9144 10.1406 19.3594 10.1406H39.6406C40.8512 10.1406 42.05 10.3791 43.1685 10.8424C44.287 11.3056 45.3032 11.9847 46.1593 12.8407C47.0153 13.6968 47.6944 14.713 48.1576 15.8315C48.6209 16.95 48.8594 18.1488 48.8594 19.3594V39.6406ZM44.25 17.5156C44.25 18.0626 44.0878 18.5973 43.7839 19.0521C43.48 19.5069 43.0481 19.8614 42.5427 20.0707C42.0374 20.2801 41.4813 20.3348 40.9448 20.2281C40.4084 20.1214 39.9156 19.858 39.5288 19.4712C39.142 19.0844 38.8786 18.5917 38.7719 18.0552C38.6652 17.5187 38.7199 16.9626 38.9293 16.4573C39.1386 15.9519 39.4931 15.52 39.9479 15.2161C40.4027 14.9122 40.9374 14.75 41.4844 14.75C42.2179 14.75 42.9213 15.0414 43.44 15.56C43.9586 16.0787 44.25 16.7821 44.25 17.5156Z" fill="white" fill-opacity="0.7"/>
</svg>
