<svg width="25" height="17" viewBox="0 0 25 17" fill="none" xmlns="http://www.w3.org/2000/svg">
<path d="M2.16667 16.25C1.8007 16.25 1.49371 16.126 1.24571 15.878C0.997713 15.63 0.874143 15.3234 0.875004 14.9583C0.875004 14.5924 0.999005 14.2854 1.247 14.0374C1.495 13.7894 1.80156 13.6658 2.16667 13.6667H22.8333C23.1993 13.6667 23.5063 13.7907 23.7543 14.0387C24.0023 14.2867 24.1259 14.5932 24.125 14.9583C24.125 15.3243 24.001 15.6313 23.753 15.8793C23.505 16.1273 23.1984 16.2509 22.8333 16.25H2.16667ZM2.16667 9.79167C1.8007 9.79167 1.49371 9.66767 1.24571 9.41967C0.997713 9.17167 0.874143 8.86512 0.875004 8.5C0.875004 8.13403 0.999005 7.82705 1.247 7.57905C1.495 7.33105 1.80156 7.20748 2.16667 7.20834H22.8333C23.1993 7.20834 23.5063 7.33234 23.7543 7.58034C24.0023 7.82834 24.1259 8.13489 24.125 8.5C24.125 8.86598 24.001 9.17296 23.753 9.42096C23.505 9.66896 23.1984 9.79253 22.8333 9.79167H2.16667ZM2.16667 3.33334C1.8007 3.33334 1.49371 3.20934 1.24571 2.96134C0.997713 2.71334 0.874143 2.40678 0.875004 2.04167C0.875004 1.6757 0.999005 1.36871 1.247 1.12071C1.495 0.872713 1.80156 0.749143 2.16667 0.750004H22.8333C23.1993 0.750004 23.5063 0.874005 23.7543 1.122C24.0023 1.37 24.1259 1.67656 24.125 2.04167C24.125 2.40764 24.001 2.71463 23.753 2.96263C23.505 3.21063 23.1984 3.3342 22.8333 3.33334H2.16667Z" fill="black"/>
</svg>
