<svg width="39" height="39" viewBox="0 0 39 39" fill="none" xmlns="http://www.w3.org/2000/svg">
<path d="M19.4837 3.25C10.5137 3.25 3.25 10.53 3.25 19.5C3.25 28.47 10.5137 35.75 19.4837 35.75C28.47 35.75 35.75 28.47 35.75 19.5C35.75 10.53 28.47 3.25 19.4837 3.25ZM19.5 32.5C12.3175 32.5 6.5 26.6825 6.5 19.5C6.5 12.3175 12.3175 6.5 19.5 6.5C26.6825 6.5 32.5 12.3175 32.5 19.5C32.5 26.6825 26.6825 32.5 19.5 32.5ZM19.1425 11.375H19.045C18.395 11.375 17.875 11.895 17.875 12.545V20.215C17.875 20.7837 18.1675 21.32 18.6712 21.6125L25.415 25.6587C25.9675 25.9837 26.6825 25.8213 27.0075 25.2688C27.0891 25.1372 27.1434 24.9905 27.1671 24.8375C27.1908 24.6845 27.1835 24.5283 27.1456 24.3782C27.1077 24.2281 27.04 24.0871 26.9465 23.9638C26.8529 23.8404 26.7355 23.7371 26.6013 23.66L20.3125 19.9225V12.545C20.3125 11.895 19.7925 11.375 19.1425 11.375Z" fill="#442058"/>
</svg>
