<svg width="32" height="32" viewBox="0 0 32 32" fill="none" xmlns="http://www.w3.org/2000/svg">
<path d="M19.2317 1.9492C19.298 1.70213 19.4595 1.49144 19.681 1.36339C19.9024 1.23534 20.1656 1.20039 20.4127 1.26623C22.7569 1.89657 24.8943 3.13184 26.6107 4.84829C28.3272 6.56474 29.5624 8.7021 30.1928 11.0463C30.2255 11.1686 30.2337 11.2963 30.2171 11.4219C30.2005 11.5475 30.1593 11.6685 30.0959 11.7782C30.0324 11.8879 29.948 11.984 29.8475 12.061C29.7469 12.1381 29.6322 12.1945 29.5098 12.2273C29.3874 12.26 29.2598 12.2682 29.1342 12.2516C29.0086 12.235 28.8875 12.1938 28.7778 12.1304C28.6682 12.0669 28.5721 11.9825 28.495 11.882C28.418 11.7814 28.3615 11.6667 28.3288 11.5443C27.7865 9.52753 26.7237 7.68869 25.247 6.21198C23.7703 4.73526 21.9315 3.67251 19.9147 3.13019C19.6675 3.06415 19.4567 2.90262 19.3286 2.68114C19.2006 2.45966 19.1657 2.19637 19.2317 1.9492ZM18.5828 8.10082C19.7275 8.40855 20.7711 9.01168 21.6092 9.84978C22.4473 10.6879 23.0504 11.7315 23.3582 12.8761C23.4243 13.1232 23.5858 13.3339 23.8073 13.4619C24.0287 13.5899 24.2919 13.6248 24.5391 13.5587C24.7862 13.4927 24.9969 13.3313 25.125 13.1099C25.2531 12.8885 25.2881 12.6253 25.2221 12.3781C24.8263 10.9061 24.0507 9.56398 22.9728 8.48615C21.895 7.40832 20.5529 6.63265 19.0809 6.23685C18.8337 6.17081 18.5704 6.20567 18.3489 6.33375C18.1274 6.46183 17.9659 6.67265 17.8999 6.91983C17.8338 7.16701 17.8687 7.4303 17.9968 7.65178C18.1248 7.87326 18.3357 8.03478 18.5828 8.10082ZM31.4428 23.8752C31.1734 25.9698 30.1507 27.8947 28.5656 29.2903C26.9806 30.686 24.9417 31.4568 22.8298 31.459C10.2415 31.459 0 21.2175 0 8.62915C0.00213783 6.51726 0.773021 4.47837 2.16865 2.89335C3.56428 1.30832 5.4892 0.285573 7.58383 0.0161463C8.06739 -0.0420226 8.55678 0.0579016 8.97883 0.300976C9.40088 0.544051 9.7329 0.917216 9.92525 1.36467L13.1553 8.90139C13.302 9.24249 13.3618 9.61461 13.3294 9.98447C13.297 10.3543 13.1734 10.7104 12.9697 11.0208L10.2952 15.1075C10.2649 15.1515 10.2466 15.2025 10.2419 15.2556C10.2372 15.3088 10.2463 15.3622 10.2683 15.4108C11.5094 17.9426 13.5621 19.9862 16.0995 21.2158C16.1484 21.2377 16.2021 21.2465 16.2554 21.2414C16.3087 21.2363 16.3598 21.2174 16.4036 21.1866L20.4286 18.5026C20.7399 18.2942 21.0984 18.1671 21.4714 18.1329C21.8444 18.0986 22.22 18.1583 22.564 18.3065L30.0942 21.5337C30.5417 21.726 30.9149 22.058 31.158 22.4801C31.4011 22.9021 31.5011 23.3916 31.4428 23.8752ZM29.5286 23.6334C29.5358 23.5652 29.5207 23.4966 29.4857 23.4378C29.4506 23.379 29.3974 23.3331 29.3341 23.307L21.8041 20.0797C21.7549 20.0587 21.7012 20.0502 21.6479 20.0551C21.5947 20.06 21.5434 20.0781 21.4989 20.1078L17.4741 22.7918C17.1507 23.0082 16.7768 23.1368 16.3888 23.1651C16.0008 23.1934 15.6121 23.1204 15.2608 22.9532C12.334 21.5349 9.96624 19.1778 8.53466 16.2576C8.36679 15.9084 8.29203 15.5217 8.31764 15.1351C8.34326 14.7485 8.46836 14.375 8.68083 14.051L11.3554 9.96416C11.3845 9.91978 11.4022 9.86887 11.4068 9.81599C11.4115 9.76311 11.4029 9.70991 11.3819 9.66115L8.15203 2.12473C8.12805 2.06733 8.08787 2.01816 8.0364 1.98322C7.98493 1.94829 7.9244 1.9291 7.8622 1.92801C7.84997 1.92801 7.83775 1.9288 7.82562 1.93036C6.19678 2.14012 4.70001 2.9357 3.61492 4.16846C2.52983 5.40122 1.93064 6.98686 1.92928 8.62915C1.93553 14.1704 4.13955 19.4829 8.05781 23.4012C11.9761 27.3194 17.2886 29.5235 22.8298 29.5297C24.4721 29.5283 26.0578 28.9292 27.2905 27.8441C28.5233 26.759 29.3189 25.2622 29.5286 23.6334Z" fill="#442058"/>
</svg>
